# xmcd
#
# Track frame offsets:
#	150
#	19035
#	36136
#	51014
#	63875
#	85297
#	101072
#	117724
#	132382
#	147631
#	161373
#	182438
#
# Disc length: 2700 seconds
#
# Revision: 0
# Processed by: cddbd v1.5.2PL0 Copyright (c) Steve Scherf et al.
# Submitted via: EZCDAudioConverter 2.0.7.1
#
DISCID=a40a8a0c
DTITLE=John Conlee - Classics 2
DYEAR=2015
DGENRE=Country
TTITLE0=Domestic Life
TTITLE1=Stuff That Works
TTITLE2=Walkin' Behind The Star
TTITLE3=Hit The Ground Runnin'
TTITLE4=A Lot Of Things Different
TTITLE5=Mama's Rockin' Chair
TTITLE6=Love In The Real World
TTITLE7=Pocket Full Of Crosses
TTITLE8=Harmony
TTITLE9=The In Crowd
TTITLE10=Bread And Water
TTITLE11=Sure
EXTD=
EXTT0=
EXTT1=
EXTT2=
EXTT3=
EXTT4=
EXTT5=
EXTT6=
EXTT7=
EXTT8=
EXTT9=
EXTT10=
EXTT11=
PLAYORDER=
